{
	"asset":{
		"generator":"Khronos glTF Blender I/O v4.1.63",
		"version":"2.0"
	},
	"extensionsUsed":[
		"EXT_texture_webp"
	],
	"scene":0,
	"scenes":[
		{
			"name":"Scene",
			"nodes":[
				0,
				1,
				2,
				3,
				4
			]
		}
	],
	"nodes":[
		{
			"mesh":0,
			"name":"Car_10_ZZ"
		},
		{
			"mesh":1,
			"name":"RL",
			"translation":[
				0.9711110591888428,
				0.03726895526051521,
				0.7545524835586548
			]
		},
		{
			"mesh":2,
			"name":"FL",
			"translation":[
				-0.9679632782936096,
				0.037268951535224915,
				0.7545525431632996
			]
		},
		{
			"mesh":3,
			"name":"RR",
			"translation":[
				0.9711108803749084,
				0.037268951535224915,
				-0.7545526623725891
			]
		},
		{
			"mesh":4,
			"name":"FR",
			"translation":[
				-0.9679632782936096,
				0.037268951535224915,
				-0.7545526623725891
			]
		}
	],
	"materials":[
		{
			"name":"City Car",
			"pbrMetallicRoughness":{
				"baseColorTexture":{
					"index":0
				},
				"metallicFactor":0.34545451402664185,
				"roughnessFactor":0.48181819915771484
			}
		},
		{
			"name":"City Metal",
			"pbrMetallicRoughness":{
				"baseColorTexture":{
					"index":1
				},
				"roughnessFactor":0.2708495557308197
			}
		},
		{
			"name":"Windows",
			"pbrMetallicRoughness":{
				"baseColorTexture":{
					"index":2
				},
				"metallicFactor":0.5454545617103577,
				"roughnessFactor":0.8727272748947144
			}
		}
	],
	"meshes":[
		{
			"name":"Car_10_ZZ",
			"primitives":[
				{
					"attributes":{
						"POSITION":0,
						"NORMAL":1,
						"TEXCOORD_0":2
					},
					"indices":3,
					"material":0
				},
				{
					"attributes":{
						"POSITION":4,
						"NORMAL":5,
						"TEXCOORD_0":6
					},
					"indices":7,
					"material":1
				},
				{
					"attributes":{
						"POSITION":8,
						"NORMAL":9,
						"TEXCOORD_0":10
					},
					"indices":11,
					"material":2
				}
			]
		},
		{
			"name":"RL",
			"primitives":[
				{
					"attributes":{
						"POSITION":12,
						"NORMAL":13,
						"TEXCOORD_0":14
					},
					"indices":15,
					"material":0
				},
				{
					"attributes":{
						"POSITION":16,
						"NORMAL":17,
						"TEXCOORD_0":18
					},
					"indices":19,
					"material":1
				}
			]
		},
		{
			"name":"FL",
			"primitives":[
				{
					"attributes":{
						"POSITION":20,
						"NORMAL":21,
						"TEXCOORD_0":22
					},
					"indices":23,
					"material":0
				},
				{
					"attributes":{
						"POSITION":24,
						"NORMAL":25,
						"TEXCOORD_0":26
					},
					"indices":27,
					"material":1
				}
			]
		},
		{
			"name":"RR",
			"primitives":[
				{
					"attributes":{
						"POSITION":28,
						"NORMAL":29,
						"TEXCOORD_0":30
					},
					"indices":31,
					"material":0
				},
				{
					"attributes":{
						"POSITION":32,
						"NORMAL":33,
						"TEXCOORD_0":34
					},
					"indices":35,
					"material":1
				}
			]
		},
		{
			"name":"FR",
			"primitives":[
				{
					"attributes":{
						"POSITION":36,
						"NORMAL":37,
						"TEXCOORD_0":38
					},
					"indices":39,
					"material":0
				},
				{
					"attributes":{
						"POSITION":40,
						"NORMAL":41,
						"TEXCOORD_0":42
					},
					"indices":35,
					"material":1
				}
			]
		}
	],
	"textures":[
		{
			"extensions":{
				"EXT_texture_webp":{
					"source":0
				}
			},
			"sampler":0,
			"source":1
		},
		{
			"extensions":{
				"EXT_texture_webp":{
					"source":0
				}
			},
			"sampler":0,
			"source":1
		},
		{
			"extensions":{
				"EXT_texture_webp":{
					"source":2
				}
			},
			"sampler":0,
			"source":3
		}
	],
	"images":[
		{
			"mimeType":"image/webp",
			"name":"City Atlas Map.png",
			"uri":"City%20Atlas%20Map_png.webp"
		},
		{
			"mimeType":"image/png",
			"name":"City Atlas Map.png",
			"uri":"City%20Atlas%20Map_png.png"
		},
		{
			"mimeType":"image/webp",
			"name":"Windows",
			"uri":"Windows.webp"
		},
		{
			"mimeType":"image/png",
			"name":"Windows",
			"uri":"Windows.png"
		}
	],
	"accessors":[
		{
			"bufferView":0,
			"componentType":5126,
			"count":1631,
			"max":[
				1.867691159248352,
				1.2743358612060547,
				0.8202416896820068
			],
			"min":[
				-1.6820250749588013,
				-0.00122755765914917,
				-0.8202416896820068
			],
			"type":"VEC3"
		},
		{
			"bufferView":1,
			"componentType":5126,
			"count":1631,
			"type":"VEC3"
		},
		{
			"bufferView":2,
			"componentType":5126,
			"count":1631,
			"type":"VEC2"
		},
		{
			"bufferView":3,
			"componentType":5123,
			"count":3300,
			"type":"SCALAR"
		},
		{
			"bufferView":4,
			"componentType":5126,
			"count":1009,
			"max":[
				1.756866455078125,
				0.8578060865402222,
				0.9267914891242981
			],
			"min":[
				-1.7145271301269531,
				0.023930996656417847,
				-0.9267914891242981
			],
			"type":"VEC3"
		},
		{
			"bufferView":5,
			"componentType":5126,
			"count":1009,
			"type":"VEC3"
		},
		{
			"bufferView":6,
			"componentType":5126,
			"count":1009,
			"type":"VEC2"
		},
		{
			"bufferView":7,
			"componentType":5123,
			"count":2034,
			"type":"SCALAR"
		},
		{
			"bufferView":8,
			"componentType":5126,
			"count":40,
			"max":[
				1.55667245388031,
				1.1937909126281738,
				0.6467150449752808
			],
			"min":[
				-0.5984165668487549,
				0.5906863212585449,
				-0.6467150449752808
			],
			"type":"VEC3"
		},
		{
			"bufferView":9,
			"componentType":5126,
			"count":40,
			"type":"VEC3"
		},
		{
			"bufferView":10,
			"componentType":5126,
			"count":40,
			"type":"VEC2"
		},
		{
			"bufferView":11,
			"componentType":5123,
			"count":78,
			"type":"SCALAR"
		},
		{
			"bufferView":12,
			"componentType":5126,
			"count":130,
			"max":[
				0.26444876194000244,
				0.25150564312934875,
				0.05103254318237305
			],
			"min":[
				-0.264448881149292,
				-0.2515057325363159,
				-0.11866569519042969
			],
			"type":"VEC3"
		},
		{
			"bufferView":13,
			"componentType":5126,
			"count":130,
			"type":"VEC3"
		},
		{
			"bufferView":14,
			"componentType":5126,
			"count":130,
			"type":"VEC2"
		},
		{
			"bufferView":15,
			"componentType":5123,
			"count":324,
			"type":"SCALAR"
		},
		{
			"bufferView":16,
			"componentType":5126,
			"count":30,
			"max":[
				0.10574638843536377,
				0.10057081282138824,
				0.052752792835235596
			],
			"min":[
				-0.10574650764465332,
				-0.10057084262371063,
				0.035652995109558105
			],
			"type":"VEC3"
		},
		{
			"bufferView":17,
			"componentType":5126,
			"count":30,
			"type":"VEC3"
		},
		{
			"bufferView":18,
			"componentType":5126,
			"count":30,
			"type":"VEC2"
		},
		{
			"bufferView":19,
			"componentType":5123,
			"count":84,
			"type":"SCALAR"
		},
		{
			"bufferView":20,
			"componentType":5126,
			"count":130,
			"max":[
				0.26444894075393677,
				0.25150567293167114,
				0.05103248357772827
			],
			"min":[
				-0.26444870233535767,
				-0.2515057325363159,
				-0.11866575479507446
			],
			"type":"VEC3"
		},
		{
			"bufferView":21,
			"componentType":5126,
			"count":130,
			"type":"VEC3"
		},
		{
			"bufferView":22,
			"componentType":5126,
			"count":130,
			"type":"VEC2"
		},
		{
			"bufferView":23,
			"componentType":5123,
			"count":324,
			"type":"SCALAR"
		},
		{
			"bufferView":24,
			"componentType":5126,
			"count":30,
			"max":[
				0.1057465672492981,
				0.10057081282138824,
				0.05275273323059082
			],
			"min":[
				-0.10574644804000854,
				-0.10057084262371063,
				0.03565293550491333
			],
			"type":"VEC3"
		},
		{
			"bufferView":25,
			"componentType":5126,
			"count":30,
			"type":"VEC3"
		},
		{
			"bufferView":26,
			"componentType":5126,
			"count":30,
			"type":"VEC2"
		},
		{
			"bufferView":27,
			"componentType":5123,
			"count":84,
			"type":"SCALAR"
		},
		{
			"bufferView":28,
			"componentType":5126,
			"count":129,
			"max":[
				0.26444894075393677,
				0.25150567293167114,
				0.11866551637649536
			],
			"min":[
				-0.26444870233535767,
				-0.2515057325363159,
				-0.05103272199630737
			],
			"type":"VEC3"
		},
		{
			"bufferView":29,
			"componentType":5126,
			"count":129,
			"type":"VEC3"
		},
		{
			"bufferView":30,
			"componentType":5126,
			"count":129,
			"type":"VEC2"
		},
		{
			"bufferView":31,
			"componentType":5123,
			"count":324,
			"type":"SCALAR"
		},
		{
			"bufferView":32,
			"componentType":5126,
			"count":30,
			"max":[
				0.1057465672492981,
				0.10057081282138824,
				-0.03565323352813721
			],
			"min":[
				-0.105746328830719,
				-0.10057084262371063,
				-0.0527530312538147
			],
			"type":"VEC3"
		},
		{
			"bufferView":33,
			"componentType":5126,
			"count":30,
			"type":"VEC3"
		},
		{
			"bufferView":34,
			"componentType":5126,
			"count":30,
			"type":"VEC2"
		},
		{
			"bufferView":35,
			"componentType":5123,
			"count":84,
			"type":"SCALAR"
		},
		{
			"bufferView":36,
			"componentType":5126,
			"count":130,
			"max":[
				0.26444894075393677,
				0.25150567293167114,
				0.11866551637649536
			],
			"min":[
				-0.26444870233535767,
				-0.2515057325363159,
				-0.05103272199630737
			],
			"type":"VEC3"
		},
		{
			"bufferView":37,
			"componentType":5126,
			"count":130,
			"type":"VEC3"
		},
		{
			"bufferView":38,
			"componentType":5126,
			"count":130,
			"type":"VEC2"
		},
		{
			"bufferView":39,
			"componentType":5123,
			"count":324,
			"type":"SCALAR"
		},
		{
			"bufferView":40,
			"componentType":5126,
			"count":30,
			"max":[
				0.1057465672492981,
				0.10057081282138824,
				-0.03565323352813721
			],
			"min":[
				-0.10574644804000854,
				-0.10057084262371063,
				-0.0527530312538147
			],
			"type":"VEC3"
		},
		{
			"bufferView":41,
			"componentType":5126,
			"count":30,
			"type":"VEC3"
		},
		{
			"bufferView":42,
			"componentType":5126,
			"count":30,
			"type":"VEC2"
		}
	],
	"bufferViews":[
		{
			"buffer":0,
			"byteLength":19572,
			"byteOffset":0,
			"target":34962
		},
		{
			"buffer":0,
			"byteLength":19572,
			"byteOffset":19572,
			"target":34962
		},
		{
			"buffer":0,
			"byteLength":13048,
			"byteOffset":39144,
			"target":34962
		},
		{
			"buffer":0,
			"byteLength":6600,
			"byteOffset":52192,
			"target":34963
		},
		{
			"buffer":0,
			"byteLength":12108,
			"byteOffset":58792,
			"target":34962
		},
		{
			"buffer":0,
			"byteLength":12108,
			"byteOffset":70900,
			"target":34962
		},
		{
			"buffer":0,
			"byteLength":8072,
			"byteOffset":83008,
			"target":34962
		},
		{
			"buffer":0,
			"byteLength":4068,
			"byteOffset":91080,
			"target":34963
		},
		{
			"buffer":0,
			"byteLength":480,
			"byteOffset":95148,
			"target":34962
		},
		{
			"buffer":0,
			"byteLength":480,
			"byteOffset":95628,
			"target":34962
		},
		{
			"buffer":0,
			"byteLength":320,
			"byteOffset":96108,
			"target":34962
		},
		{
			"buffer":0,
			"byteLength":156,
			"byteOffset":96428,
			"target":34963
		},
		{
			"buffer":0,
			"byteLength":1560,
			"byteOffset":96584,
			"target":34962
		},
		{
			"buffer":0,
			"byteLength":1560,
			"byteOffset":98144,
			"target":34962
		},
		{
			"buffer":0,
			"byteLength":1040,
			"byteOffset":99704,
			"target":34962
		},
		{
			"buffer":0,
			"byteLength":648,
			"byteOffset":100744,
			"target":34963
		},
		{
			"buffer":0,
			"byteLength":360,
			"byteOffset":101392,
			"target":34962
		},
		{
			"buffer":0,
			"byteLength":360,
			"byteOffset":101752,
			"target":34962
		},
		{
			"buffer":0,
			"byteLength":240,
			"byteOffset":102112,
			"target":34962
		},
		{
			"buffer":0,
			"byteLength":168,
			"byteOffset":102352,
			"target":34963
		},
		{
			"buffer":0,
			"byteLength":1560,
			"byteOffset":102520,
			"target":34962
		},
		{
			"buffer":0,
			"byteLength":1560,
			"byteOffset":104080,
			"target":34962
		},
		{
			"buffer":0,
			"byteLength":1040,
			"byteOffset":105640,
			"target":34962
		},
		{
			"buffer":0,
			"byteLength":648,
			"byteOffset":106680,
			"target":34963
		},
		{
			"buffer":0,
			"byteLength":360,
			"byteOffset":107328,
			"target":34962
		},
		{
			"buffer":0,
			"byteLength":360,
			"byteOffset":107688,
			"target":34962
		},
		{
			"buffer":0,
			"byteLength":240,
			"byteOffset":108048,
			"target":34962
		},
		{
			"buffer":0,
			"byteLength":168,
			"byteOffset":108288,
			"target":34963
		},
		{
			"buffer":0,
			"byteLength":1548,
			"byteOffset":108456,
			"target":34962
		},
		{
			"buffer":0,
			"byteLength":1548,
			"byteOffset":110004,
			"target":34962
		},
		{
			"buffer":0,
			"byteLength":1032,
			"byteOffset":111552,
			"target":34962
		},
		{
			"buffer":0,
			"byteLength":648,
			"byteOffset":112584,
			"target":34963
		},
		{
			"buffer":0,
			"byteLength":360,
			"byteOffset":113232,
			"target":34962
		},
		{
			"buffer":0,
			"byteLength":360,
			"byteOffset":113592,
			"target":34962
		},
		{
			"buffer":0,
			"byteLength":240,
			"byteOffset":113952,
			"target":34962
		},
		{
			"buffer":0,
			"byteLength":168,
			"byteOffset":114192,
			"target":34963
		},
		{
			"buffer":0,
			"byteLength":1560,
			"byteOffset":114360,
			"target":34962
		},
		{
			"buffer":0,
			"byteLength":1560,
			"byteOffset":115920,
			"target":34962
		},
		{
			"buffer":0,
			"byteLength":1040,
			"byteOffset":117480,
			"target":34962
		},
		{
			"buffer":0,
			"byteLength":648,
			"byteOffset":118520,
			"target":34963
		},
		{
			"buffer":0,
			"byteLength":360,
			"byteOffset":119168,
			"target":34962
		},
		{
			"buffer":0,
			"byteLength":360,
			"byteOffset":119528,
			"target":34962
		},
		{
			"buffer":0,
			"byteLength":240,
			"byteOffset":119888,
			"target":34962
		}
	],
	"samplers":[
		{
			"magFilter":9729,
			"minFilter":9987
		}
	],
	"buffers":[
		{
			"byteLength":120128,
			"uri":"Car_10_ZZ.bin"
		}
	]
}
